<svg width="310" height="345" viewBox="0 0 310 345" fill="none" xmlns="http://www.w3.org/2000/svg">
<path d="M116.263 342.909C111.716 343.424 107.132 343.805 102.493 343.954C100.177 344.028 97.8756 344.057 95.5817 344.039C32.6993 343.579 1.86397 267.023 46.3289 222.558L96.8639 172.023C96.8639 172.023 100.551 175.71 134.34 209.499C168.117 243.277 222.091 321.997 127.347 341.323C127.173 341.356 126.995 341.375 126.821 341.404L116.263 342.909Z" fill="url(#paint0_linear_16_5)"/>
<path d="M127.342 341.323C222.083 322.001 168.113 243.277 134.335 209.5C100.546 175.711 96.8591 172.024 96.8591 172.024L46.3243 121.489C1.90752 77.0719 32.6205 0.51911 95.4362 0.00772095C95.9105 0.00401523 96.3847 0.000305176 96.8591 0.000305176C192.733 0.000305176 270.287 78.4319 268.86 174.632C267.63 257.44 206.756 326.975 127.342 341.323Z" fill="url(#paint1_linear_16_5)"/>
<path d="M245.08 258.932C248.605 147.449 107.302 35.6368 30.7713 44.0525C40.8027 19.4094 64.1265 0.261929 95.4361 0.00993957C95.9105 0.00623385 96.3847 0.00252278 96.859 0.00252278C192.733 0.00252278 270.287 78.4341 268.86 174.635C268.404 205.262 259.774 234.06 245.08 258.932Z" fill="url(#paint2_linear_16_5)"/>
<path d="M301.073 258.628C306.56 264.116 309.312 271.318 309.302 278.511C309.311 285.705 306.559 292.907 301.073 298.394C290.09 309.376 272.289 309.376 261.307 298.394C255.819 292.907 253.067 285.705 253.077 278.511C253.068 271.318 255.821 264.116 261.307 258.628C266.794 253.141 273.996 250.39 281.19 250.399C288.383 250.388 295.585 253.141 301.073 258.628Z" fill="url(#paint3_linear_16_5)"/>
<path d="M253.076 278.52C253.076 270.76 256.223 263.721 261.316 258.641C263.717 256.239 266.548 254.268 269.682 252.865C265.246 257.832 262.554 264.391 262.554 271.569C262.554 279.316 265.701 286.368 270.794 291.448C275.874 296.528 282.913 299.688 290.673 299.688C294.768 299.688 298.673 298.803 302.186 297.211C301.832 297.615 301.453 298.02 301.074 298.399C295.994 303.479 288.954 306.639 281.195 306.639C273.435 306.639 266.396 303.479 261.316 298.399C256.223 293.318 253.076 286.267 253.076 278.52Z" fill="url(#paint4_linear_16_5)"/>
<defs>
<linearGradient id="paint0_linear_16_5" x1="30.0628" y1="306.221" x2="183.545" y2="231.214" gradientUnits="userSpaceOnUse">
<stop stop-color="#BC0A62"/>
<stop offset="0.439077" stop-color="#9B004D"/>
<stop offset="1" stop-color="#0C0006"/>
</linearGradient>
<linearGradient id="paint1_linear_16_5" x1="32.7408" y1="266.275" x2="291.589" y2="157.227" gradientUnits="userSpaceOnUse">
<stop stop-color="#F6007A"/>
<stop offset="0.756982" stop-color="#94064C"/>
<stop offset="1" stop-color="#EF1983"/>
</linearGradient>
<linearGradient id="paint2_linear_16_5" x1="38" y1="202" x2="271.732" y2="85.5667" gradientUnits="userSpaceOnUse">
<stop stop-color="#F6007A"/>
<stop offset="0.439077" stop-color="#9B004D"/>
<stop offset="1" stop-color="#EF1983"/>
</linearGradient>
<linearGradient id="paint3_linear_16_5" x1="284.544" y1="282.531" x2="298.153" y2="264.537" gradientUnits="userSpaceOnUse">
<stop stop-color="#CA388D"/>
<stop offset="0.527083" stop-color="#CB2075"/>
<stop offset="1" stop-color="#CA0064"/>
</linearGradient>
<linearGradient id="paint4_linear_16_5" x1="254.567" y1="294.815" x2="302.906" y2="270.9" gradientUnits="userSpaceOnUse">
<stop stop-color="#BC0A62"/>
<stop offset="0.439077" stop-color="#9B004D"/>
<stop offset="1" stop-color="#0C0006"/>
</linearGradient>
</defs>
</svg>
